<mxfile host="app.diagrams.net" modified="2024-05-19T09:43:32.684Z" agent="Mozilla/5.0 (X11; Linux x86_64) AppleWebKit/537.36 (KHTML, like Gecko) Chrome/120.0.0.0 YaBrowser/24.1.0.0 Safari/537.36" etag="wKTeIIL7e8NgaXXA8Hvc" version="24.4.4" type="device">
  <diagram name="Страница — 1" id="mgLZvJFJcLSX8NvOzQ6Y">
    <mxGraphModel dx="1436" dy="785" grid="1" gridSize="10" guides="1" tooltips="1" connect="1" arrows="1" fold="1" page="1" pageScale="1" pageWidth="827" pageHeight="1169" math="0" shadow="0">
      <root>
        <mxCell id="0" />
        <mxCell id="1" parent="0" />
        <mxCell id="BKhIqPO599WWMoXGcLbZ-4" value="Сотрудник" style="shape=umlActor;verticalLabelPosition=bottom;verticalAlign=top;html=1;outlineConnect=0;" parent="1" vertex="1">
          <mxGeometry x="40" y="20" width="30" height="60" as="geometry" />
        </mxCell>
        <mxCell id="BKhIqPO599WWMoXGcLbZ-7" value="Project" style="rounded=0;whiteSpace=wrap;html=1;" parent="1" vertex="1">
          <mxGeometry x="144" y="40" width="90" height="20" as="geometry" />
        </mxCell>
        <mxCell id="BKhIqPO599WWMoXGcLbZ-8" value="Preprocessing" style="rounded=0;whiteSpace=wrap;html=1;" parent="1" vertex="1">
          <mxGeometry x="540" y="35" width="90" height="30" as="geometry" />
        </mxCell>
        <mxCell id="BKhIqPO599WWMoXGcLbZ-12" value="" style="html=1;points=[[0,0,0,0,5],[0,1,0,0,-5],[1,0,0,0,5],[1,1,0,0,-5]];perimeter=orthogonalPerimeter;outlineConnect=0;targetShapes=umlLifeline;portConstraint=eastwest;newEdgeStyle={&quot;curved&quot;:0,&quot;rounded&quot;:0};" parent="1" vertex="1">
          <mxGeometry x="50" y="140" width="10" height="760" as="geometry" />
        </mxCell>
        <mxCell id="BKhIqPO599WWMoXGcLbZ-18" value="" style="html=1;points=[[0,0,0,0,5],[0,1,0,0,-5],[1,0,0,0,5],[1,1,0,0,-5]];perimeter=orthogonalPerimeter;outlineConnect=0;targetShapes=umlLifeline;portConstraint=eastwest;newEdgeStyle={&quot;curved&quot;:0,&quot;rounded&quot;:0};" parent="1" vertex="1">
          <mxGeometry x="184" y="134" width="10" height="20" as="geometry" />
        </mxCell>
        <mxCell id="BKhIqPO599WWMoXGcLbZ-20" value="1:loadData ()" style="html=1;verticalAlign=bottom;endArrow=block;curved=0;rounded=0;exitX=1;exitY=0;exitDx=0;exitDy=5;exitPerimeter=0;" parent="1" source="BKhIqPO599WWMoXGcLbZ-12" target="BKhIqPO599WWMoXGcLbZ-18" edge="1">
          <mxGeometry x="0.1321" y="15" width="80" relative="1" as="geometry">
            <mxPoint x="60" y="240" as="sourcePoint" />
            <mxPoint x="166" y="240" as="targetPoint" />
            <mxPoint as="offset" />
          </mxGeometry>
        </mxCell>
        <mxCell id="BKhIqPO599WWMoXGcLbZ-42" value="" style="endArrow=none;dashed=1;html=1;rounded=0;" parent="1" source="BKhIqPO599WWMoXGcLbZ-12" edge="1">
          <mxGeometry width="50" height="50" relative="1" as="geometry">
            <mxPoint x="55" y="130" as="sourcePoint" />
            <mxPoint x="54.889999999999986" y="100" as="targetPoint" />
          </mxGeometry>
        </mxCell>
        <mxCell id="BKhIqPO599WWMoXGcLbZ-44" value="" style="endArrow=none;dashed=1;html=1;rounded=0;entryX=0.5;entryY=1;entryDx=0;entryDy=0;" parent="1" source="BKhIqPO599WWMoXGcLbZ-18" target="BKhIqPO599WWMoXGcLbZ-7" edge="1">
          <mxGeometry width="50" height="50" relative="1" as="geometry">
            <mxPoint x="64.88999999999999" y="160" as="sourcePoint" />
            <mxPoint x="64.88999999999999" y="110" as="targetPoint" />
          </mxGeometry>
        </mxCell>
        <mxCell id="g2MOZfHRKM3PN08ormvh-1" value="Selecting" style="rounded=0;whiteSpace=wrap;html=1;" parent="1" vertex="1">
          <mxGeometry x="670" y="35" width="90" height="30" as="geometry" />
        </mxCell>
        <mxCell id="g2MOZfHRKM3PN08ormvh-2" value="Training" style="rounded=0;whiteSpace=wrap;html=1;" parent="1" vertex="1">
          <mxGeometry x="800" y="35" width="90" height="30" as="geometry" />
        </mxCell>
        <mxCell id="g2MOZfHRKM3PN08ormvh-3" value="Relise" style="rounded=0;whiteSpace=wrap;html=1;" parent="1" vertex="1">
          <mxGeometry x="930" y="35" width="90" height="30" as="geometry" />
        </mxCell>
        <mxCell id="g2MOZfHRKM3PN08ormvh-4" value="" style="html=1;points=[[0,0,0,0,5],[0,1,0,0,-5],[1,0,0,0,5],[1,1,0,0,-5]];perimeter=orthogonalPerimeter;outlineConnect=0;targetShapes=umlLifeline;portConstraint=eastwest;newEdgeStyle={&quot;curved&quot;:0,&quot;rounded&quot;:0};" parent="1" vertex="1">
          <mxGeometry x="320" y="144" width="10" height="20" as="geometry" />
        </mxCell>
        <mxCell id="g2MOZfHRKM3PN08ormvh-5" value="Dataset" style="rounded=0;whiteSpace=wrap;html=1;" parent="1" vertex="1">
          <mxGeometry x="280" y="35" width="90" height="30" as="geometry" />
        </mxCell>
        <mxCell id="g2MOZfHRKM3PN08ormvh-6" value="Model" style="rounded=0;whiteSpace=wrap;html=1;" parent="1" vertex="1">
          <mxGeometry x="413.5" y="35" width="90" height="30" as="geometry" />
        </mxCell>
        <mxCell id="g2MOZfHRKM3PN08ormvh-8" value="2:init ()" style="html=1;verticalAlign=bottom;endArrow=block;curved=0;rounded=0;exitX=1;exitY=0;exitDx=0;exitDy=5;exitPerimeter=0;" parent="1" edge="1">
          <mxGeometry x="0.0645" y="4" width="80" relative="1" as="geometry">
            <mxPoint x="194" y="154" as="sourcePoint" />
            <mxPoint x="318" y="154" as="targetPoint" />
            <mxPoint as="offset" />
          </mxGeometry>
        </mxCell>
        <mxCell id="g2MOZfHRKM3PN08ormvh-9" value="" style="html=1;points=[[0,0,0,0,5],[0,1,0,0,-5],[1,0,0,0,5],[1,1,0,0,-5]];perimeter=orthogonalPerimeter;outlineConnect=0;targetShapes=umlLifeline;portConstraint=eastwest;newEdgeStyle={&quot;curved&quot;:0,&quot;rounded&quot;:0};" parent="1" vertex="1">
          <mxGeometry x="580" y="170" width="10" height="170" as="geometry" />
        </mxCell>
        <mxCell id="g2MOZfHRKM3PN08ormvh-38" value="3:init ()" style="html=1;verticalAlign=bottom;endArrow=block;curved=0;rounded=0;" parent="1" edge="1">
          <mxGeometry x="-0.3846" width="80" relative="1" as="geometry">
            <mxPoint x="60" y="174" as="sourcePoint" />
            <mxPoint x="580" y="174" as="targetPoint" />
            <mxPoint as="offset" />
          </mxGeometry>
        </mxCell>
        <mxCell id="g2MOZfHRKM3PN08ormvh-40" value="" style="html=1;points=[[0,0,0,0,5],[0,1,0,0,-5],[1,0,0,0,5],[1,1,0,0,-5]];perimeter=orthogonalPerimeter;outlineConnect=0;targetShapes=umlLifeline;portConstraint=eastwest;newEdgeStyle={&quot;curved&quot;:0,&quot;rounded&quot;:0};" parent="1" vertex="1">
          <mxGeometry x="320" y="200" width="10" height="20" as="geometry" />
        </mxCell>
        <mxCell id="g2MOZfHRKM3PN08ormvh-41" value="4: getDataset ()" style="html=1;verticalAlign=bottom;endArrow=block;curved=0;rounded=0;" parent="1" edge="1">
          <mxGeometry x="0.04" width="80" relative="1" as="geometry">
            <mxPoint x="580" y="199.72" as="sourcePoint" />
            <mxPoint x="330" y="199.72" as="targetPoint" />
            <mxPoint as="offset" />
            <Array as="points">
              <mxPoint x="350" y="199.72" />
            </Array>
          </mxGeometry>
        </mxCell>
        <mxCell id="g2MOZfHRKM3PN08ormvh-42" value="5: LoadDataset()" style="html=1;verticalAlign=bottom;endArrow=open;dashed=1;endSize=8;curved=0;rounded=0;" parent="1" edge="1">
          <mxGeometry relative="1" as="geometry">
            <mxPoint x="330" y="220" as="sourcePoint" />
            <mxPoint x="580" y="220" as="targetPoint" />
          </mxGeometry>
        </mxCell>
        <mxCell id="g2MOZfHRKM3PN08ormvh-43" value="6:&amp;nbsp;&lt;span style=&quot;font-size: 12px; text-align: left; text-wrap: wrap; background-color: rgb(251, 251, 251);&quot;&gt;dataPreprocessing&lt;/span&gt;&amp;nbsp;()" style="html=1;verticalAlign=bottom;endArrow=block;curved=0;rounded=0;" parent="1" edge="1">
          <mxGeometry x="-0.3846" width="80" relative="1" as="geometry">
            <mxPoint x="60" y="244.66" as="sourcePoint" />
            <mxPoint x="580" y="244.66" as="targetPoint" />
            <mxPoint as="offset" />
          </mxGeometry>
        </mxCell>
        <mxCell id="g2MOZfHRKM3PN08ormvh-44" value="7:&amp;nbsp;&lt;span style=&quot;font-size: 12px; text-align: left; text-wrap: wrap; background-color: rgb(251, 251, 251);&quot;&gt;dataScince&lt;/span&gt;&amp;nbsp;()" style="html=1;verticalAlign=bottom;endArrow=block;curved=0;rounded=0;" parent="1" edge="1">
          <mxGeometry x="-0.3846" width="80" relative="1" as="geometry">
            <mxPoint x="60" y="270" as="sourcePoint" />
            <mxPoint x="580" y="270" as="targetPoint" />
            <mxPoint as="offset" />
          </mxGeometry>
        </mxCell>
        <mxCell id="g2MOZfHRKM3PN08ormvh-45" value="8: dataCleaning ()" style="html=1;verticalAlign=bottom;endArrow=block;curved=0;rounded=0;" parent="1" edge="1">
          <mxGeometry x="-0.3846" width="80" relative="1" as="geometry">
            <mxPoint x="60" y="290" as="sourcePoint" />
            <mxPoint x="580" y="290" as="targetPoint" />
            <mxPoint as="offset" />
          </mxGeometry>
        </mxCell>
        <mxCell id="g2MOZfHRKM3PN08ormvh-46" value="9:&amp;nbsp;&lt;span style=&quot;font-size: 12px; text-align: left; text-wrap: wrap; background-color: rgb(251, 251, 251);&quot;&gt;dataAug&lt;/span&gt;&amp;nbsp;()" style="html=1;verticalAlign=bottom;endArrow=block;curved=0;rounded=0;" parent="1" edge="1">
          <mxGeometry x="-0.3846" width="80" relative="1" as="geometry">
            <mxPoint x="60" y="310" as="sourcePoint" />
            <mxPoint x="580" y="310" as="targetPoint" />
            <mxPoint as="offset" />
          </mxGeometry>
        </mxCell>
        <mxCell id="g2MOZfHRKM3PN08ormvh-47" value="" style="html=1;points=[[0,0,0,0,5],[0,1,0,0,-5],[1,0,0,0,5],[1,1,0,0,-5]];perimeter=orthogonalPerimeter;outlineConnect=0;targetShapes=umlLifeline;portConstraint=eastwest;newEdgeStyle={&quot;curved&quot;:0,&quot;rounded&quot;:0};" parent="1" vertex="1">
          <mxGeometry x="320" y="320" width="10" height="20" as="geometry" />
        </mxCell>
        <mxCell id="g2MOZfHRKM3PN08ormvh-48" value="10: saveChanges ()" style="html=1;verticalAlign=bottom;endArrow=block;curved=0;rounded=0;" parent="1" edge="1">
          <mxGeometry x="0.04" width="80" relative="1" as="geometry">
            <mxPoint x="580" y="340" as="sourcePoint" />
            <mxPoint x="330" y="340" as="targetPoint" />
            <mxPoint as="offset" />
            <Array as="points">
              <mxPoint x="350" y="340" />
            </Array>
          </mxGeometry>
        </mxCell>
        <mxCell id="g2MOZfHRKM3PN08ormvh-50" value="" style="html=1;points=[[0,0,0,0,5],[0,1,0,0,-5],[1,0,0,0,5],[1,1,0,0,-5]];perimeter=orthogonalPerimeter;outlineConnect=0;targetShapes=umlLifeline;portConstraint=eastwest;newEdgeStyle={&quot;curved&quot;:0,&quot;rounded&quot;:0};" parent="1" vertex="1">
          <mxGeometry x="710" y="390" width="10" height="200" as="geometry" />
        </mxCell>
        <mxCell id="g2MOZfHRKM3PN08ormvh-51" value="11:init ()" style="html=1;verticalAlign=bottom;endArrow=block;curved=0;rounded=0;" parent="1" target="g2MOZfHRKM3PN08ormvh-50" edge="1">
          <mxGeometry x="-0.3846" width="80" relative="1" as="geometry">
            <mxPoint x="60" y="389.16999999999996" as="sourcePoint" />
            <mxPoint x="580" y="389.16999999999996" as="targetPoint" />
            <mxPoint as="offset" />
          </mxGeometry>
        </mxCell>
        <mxCell id="g2MOZfHRKM3PN08ormvh-52" value="" style="html=1;points=[[0,0,0,0,5],[0,1,0,0,-5],[1,0,0,0,5],[1,1,0,0,-5]];perimeter=orthogonalPerimeter;outlineConnect=0;targetShapes=umlLifeline;portConstraint=eastwest;newEdgeStyle={&quot;curved&quot;:0,&quot;rounded&quot;:0};" parent="1" vertex="1">
          <mxGeometry x="320" y="410" width="10" height="20" as="geometry" />
        </mxCell>
        <mxCell id="g2MOZfHRKM3PN08ormvh-53" value="12: getDataset ()" style="html=1;verticalAlign=bottom;endArrow=block;curved=0;rounded=0;" parent="1" target="g2MOZfHRKM3PN08ormvh-52" edge="1">
          <mxGeometry x="0.04" width="80" relative="1" as="geometry">
            <mxPoint x="710" y="409.16999999999996" as="sourcePoint" />
            <mxPoint x="460" y="409.16999999999996" as="targetPoint" />
            <mxPoint as="offset" />
            <Array as="points">
              <mxPoint x="480" y="409.16999999999996" />
            </Array>
          </mxGeometry>
        </mxCell>
        <mxCell id="g2MOZfHRKM3PN08ormvh-54" value="14: getModels ()" style="html=1;verticalAlign=bottom;endArrow=block;curved=0;rounded=0;" parent="1" source="g2MOZfHRKM3PN08ormvh-49" edge="1">
          <mxGeometry x="0.4763" width="80" relative="1" as="geometry">
            <mxPoint x="710" y="449.76" as="sourcePoint" />
            <mxPoint x="460" y="449.76" as="targetPoint" />
            <mxPoint as="offset" />
            <Array as="points">
              <mxPoint x="710" y="450" />
            </Array>
          </mxGeometry>
        </mxCell>
        <mxCell id="g2MOZfHRKM3PN08ormvh-49" value="" style="html=1;points=[[0,0,0,0,5],[0,1,0,0,-5],[1,0,0,0,5],[1,1,0,0,-5]];perimeter=orthogonalPerimeter;outlineConnect=0;targetShapes=umlLifeline;portConstraint=eastwest;newEdgeStyle={&quot;curved&quot;:0,&quot;rounded&quot;:0};" parent="1" vertex="1">
          <mxGeometry x="453.5" y="450" width="10" height="20" as="geometry" />
        </mxCell>
        <mxCell id="g2MOZfHRKM3PN08ormvh-56" value="13: LoadDataset()" style="html=1;verticalAlign=bottom;endArrow=open;dashed=1;endSize=8;curved=0;rounded=0;" parent="1" target="g2MOZfHRKM3PN08ormvh-50" edge="1">
          <mxGeometry relative="1" as="geometry">
            <mxPoint x="330" y="429.52" as="sourcePoint" />
            <mxPoint x="580" y="429.52" as="targetPoint" />
          </mxGeometry>
        </mxCell>
        <mxCell id="g2MOZfHRKM3PN08ormvh-57" value="&amp;nbsp;" style="html=1;verticalAlign=bottom;endArrow=open;dashed=1;endSize=8;curved=0;rounded=0;" parent="1" edge="1">
          <mxGeometry relative="1" as="geometry">
            <mxPoint x="463.5" y="470" as="sourcePoint" />
            <mxPoint x="710" y="470" as="targetPoint" />
          </mxGeometry>
        </mxCell>
        <mxCell id="g2MOZfHRKM3PN08ormvh-58" value="15: LoadModels()" style="edgeLabel;html=1;align=center;verticalAlign=middle;resizable=0;points=[];" parent="g2MOZfHRKM3PN08ormvh-57" vertex="1" connectable="0">
          <mxGeometry x="-0.0223" y="1" relative="1" as="geometry">
            <mxPoint x="1" y="-9" as="offset" />
          </mxGeometry>
        </mxCell>
        <mxCell id="g2MOZfHRKM3PN08ormvh-59" value="16:&amp;nbsp;&lt;span style=&quot;font-size: 12px; text-align: left; text-wrap: wrap; background-color: rgb(251, 251, 251);&quot;&gt;learnModels&lt;/span&gt;&amp;nbsp;()" style="html=1;verticalAlign=bottom;endArrow=block;curved=0;rounded=0;" parent="1" edge="1">
          <mxGeometry x="-0.3846" width="80" relative="1" as="geometry">
            <mxPoint x="60" y="499.49999999999994" as="sourcePoint" />
            <mxPoint x="710" y="500.33" as="targetPoint" />
            <mxPoint as="offset" />
          </mxGeometry>
        </mxCell>
        <mxCell id="g2MOZfHRKM3PN08ormvh-60" value="17:&amp;nbsp;&lt;span style=&quot;font-size: 12px; text-align: left; text-wrap: wrap; background-color: rgb(251, 251, 251);&quot;&gt;selectBest&lt;/span&gt;&amp;nbsp;()" style="html=1;verticalAlign=bottom;endArrow=block;curved=0;rounded=0;" parent="1" edge="1">
          <mxGeometry x="-0.3846" width="80" relative="1" as="geometry">
            <mxPoint x="60" y="530" as="sourcePoint" />
            <mxPoint x="710" y="530.8299999999999" as="targetPoint" />
            <mxPoint as="offset" />
          </mxGeometry>
        </mxCell>
        <mxCell id="g2MOZfHRKM3PN08ormvh-61" value="18:&amp;nbsp;&lt;span style=&quot;font-size: 12px; text-align: left; text-wrap: wrap; background-color: rgb(251, 251, 251);&quot;&gt;saveResults&lt;/span&gt;&amp;nbsp;()" style="html=1;verticalAlign=bottom;endArrow=block;curved=0;rounded=0;" parent="1" edge="1">
          <mxGeometry x="-0.3846" width="80" relative="1" as="geometry">
            <mxPoint x="60" y="560" as="sourcePoint" />
            <mxPoint x="710" y="560.8299999999999" as="targetPoint" />
            <mxPoint as="offset" />
          </mxGeometry>
        </mxCell>
        <mxCell id="g2MOZfHRKM3PN08ormvh-79" value="" style="html=1;points=[[0,0,0,0,5],[0,1,0,0,-5],[1,0,0,0,5],[1,1,0,0,-5]];perimeter=orthogonalPerimeter;outlineConnect=0;targetShapes=umlLifeline;portConstraint=eastwest;newEdgeStyle={&quot;curved&quot;:0,&quot;rounded&quot;:0};" parent="1" vertex="1">
          <mxGeometry x="320" y="629.83" width="10" height="20" as="geometry" />
        </mxCell>
        <mxCell id="g2MOZfHRKM3PN08ormvh-80" value="21: getDataset ()" style="html=1;verticalAlign=bottom;endArrow=block;curved=0;rounded=0;" parent="1" source="g2MOZfHRKM3PN08ormvh-86" target="g2MOZfHRKM3PN08ormvh-79" edge="1">
          <mxGeometry x="0.0398" width="80" relative="1" as="geometry">
            <mxPoint x="880" y="629" as="sourcePoint" />
            <mxPoint x="460" y="629" as="targetPoint" />
            <mxPoint as="offset" />
            <Array as="points">
              <mxPoint x="480" y="629" />
            </Array>
          </mxGeometry>
        </mxCell>
        <mxCell id="g2MOZfHRKM3PN08ormvh-81" value="23: getModels ()" style="html=1;verticalAlign=bottom;endArrow=block;curved=0;rounded=0;" parent="1" source="g2MOZfHRKM3PN08ormvh-82" edge="1">
          <mxGeometry x="0.4763" width="80" relative="1" as="geometry">
            <mxPoint x="710" y="669.59" as="sourcePoint" />
            <mxPoint x="460" y="669.59" as="targetPoint" />
            <mxPoint as="offset" />
            <Array as="points">
              <mxPoint x="840" y="670" />
            </Array>
          </mxGeometry>
        </mxCell>
        <mxCell id="g2MOZfHRKM3PN08ormvh-82" value="" style="html=1;points=[[0,0,0,0,5],[0,1,0,0,-5],[1,0,0,0,5],[1,1,0,0,-5]];perimeter=orthogonalPerimeter;outlineConnect=0;targetShapes=umlLifeline;portConstraint=eastwest;newEdgeStyle={&quot;curved&quot;:0,&quot;rounded&quot;:0};" parent="1" vertex="1">
          <mxGeometry x="453.5" y="669.83" width="10" height="20" as="geometry" />
        </mxCell>
        <mxCell id="g2MOZfHRKM3PN08ormvh-83" value="22: LoadDataset()" style="html=1;verticalAlign=bottom;endArrow=open;dashed=1;endSize=8;curved=0;rounded=0;" parent="1" target="g2MOZfHRKM3PN08ormvh-86" edge="1">
          <mxGeometry relative="1" as="geometry">
            <mxPoint x="330" y="649.35" as="sourcePoint" />
            <mxPoint x="710" y="649.83" as="targetPoint" />
          </mxGeometry>
        </mxCell>
        <mxCell id="g2MOZfHRKM3PN08ormvh-84" value="&amp;nbsp;" style="html=1;verticalAlign=bottom;endArrow=open;dashed=1;endSize=8;curved=0;rounded=0;" parent="1" target="g2MOZfHRKM3PN08ormvh-86" edge="1">
          <mxGeometry relative="1" as="geometry">
            <mxPoint x="463.5" y="689.83" as="sourcePoint" />
            <mxPoint x="710" y="690" as="targetPoint" />
          </mxGeometry>
        </mxCell>
        <mxCell id="g2MOZfHRKM3PN08ormvh-85" value="24: LoadModels()" style="edgeLabel;html=1;align=center;verticalAlign=middle;resizable=0;points=[];" parent="g2MOZfHRKM3PN08ormvh-84" vertex="1" connectable="0">
          <mxGeometry x="-0.0223" y="1" relative="1" as="geometry">
            <mxPoint x="1" y="-9" as="offset" />
          </mxGeometry>
        </mxCell>
        <mxCell id="g2MOZfHRKM3PN08ormvh-86" value="" style="html=1;points=[[0,0,0,0,5],[0,1,0,0,-5],[1,0,0,0,5],[1,1,0,0,-5]];perimeter=orthogonalPerimeter;outlineConnect=0;targetShapes=umlLifeline;portConstraint=eastwest;newEdgeStyle={&quot;curved&quot;:0,&quot;rounded&quot;:0};" parent="1" vertex="1">
          <mxGeometry x="840" y="610" width="10" height="170" as="geometry" />
        </mxCell>
        <mxCell id="g2MOZfHRKM3PN08ormvh-87" value="25:&amp;nbsp;&lt;span style=&quot;font-size: 12px; text-align: left; text-wrap: wrap; background-color: rgb(251, 251, 251);&quot;&gt;trainModel&lt;/span&gt;&amp;nbsp;()" style="html=1;verticalAlign=bottom;endArrow=block;curved=0;rounded=0;" parent="1" target="g2MOZfHRKM3PN08ormvh-86" edge="1">
          <mxGeometry x="-0.3846" width="80" relative="1" as="geometry">
            <mxPoint x="60" y="707.44" as="sourcePoint" />
            <mxPoint x="710" y="708.27" as="targetPoint" />
            <mxPoint as="offset" />
          </mxGeometry>
        </mxCell>
        <mxCell id="g2MOZfHRKM3PN08ormvh-88" value="20:init ()" style="html=1;verticalAlign=bottom;endArrow=block;curved=0;rounded=0;" parent="1" target="g2MOZfHRKM3PN08ormvh-86" edge="1">
          <mxGeometry x="-0.3846" width="80" relative="1" as="geometry">
            <mxPoint x="60" y="605.05" as="sourcePoint" />
            <mxPoint x="710" y="605.88" as="targetPoint" />
            <mxPoint as="offset" />
          </mxGeometry>
        </mxCell>
        <mxCell id="g2MOZfHRKM3PN08ormvh-89" value="26: save&lt;span style=&quot;font-size: 12px; text-align: left; text-wrap: wrap; background-color: rgb(251, 251, 251);&quot;&gt;Model&lt;/span&gt;&amp;nbsp;()" style="html=1;verticalAlign=bottom;endArrow=block;curved=0;rounded=0;" parent="1" target="g2MOZfHRKM3PN08ormvh-86" edge="1">
          <mxGeometry x="-0.3846" width="80" relative="1" as="geometry">
            <mxPoint x="60" y="736.44" as="sourcePoint" />
            <mxPoint x="880" y="736" as="targetPoint" />
            <mxPoint as="offset" />
          </mxGeometry>
        </mxCell>
        <mxCell id="g2MOZfHRKM3PN08ormvh-90" value="" style="html=1;points=[[0,0,0,0,5],[0,1,0,0,-5],[1,0,0,0,5],[1,1,0,0,-5]];perimeter=orthogonalPerimeter;outlineConnect=0;targetShapes=umlLifeline;portConstraint=eastwest;newEdgeStyle={&quot;curved&quot;:0,&quot;rounded&quot;:0};" parent="1" vertex="1">
          <mxGeometry x="453.5" y="575" width="10" height="15" as="geometry" />
        </mxCell>
        <mxCell id="g2MOZfHRKM3PN08ormvh-91" value="19: saveModel ()" style="html=1;verticalAlign=bottom;endArrow=block;curved=0;rounded=0;" parent="1" edge="1">
          <mxGeometry x="0.4763" width="80" relative="1" as="geometry">
            <mxPoint x="467.5" y="590.24" as="sourcePoint" />
            <mxPoint x="463.5" y="590" as="targetPoint" />
            <mxPoint as="offset" />
            <Array as="points">
              <mxPoint x="713.5" y="590.24" />
            </Array>
          </mxGeometry>
        </mxCell>
        <mxCell id="g2MOZfHRKM3PN08ormvh-93" value="" style="html=1;points=[[0,0,0,0,5],[0,1,0,0,-5],[1,0,0,0,5],[1,1,0,0,-5]];perimeter=orthogonalPerimeter;outlineConnect=0;targetShapes=umlLifeline;portConstraint=eastwest;newEdgeStyle={&quot;curved&quot;:0,&quot;rounded&quot;:0};" parent="1" vertex="1">
          <mxGeometry x="453.5" y="760" width="10" height="20" as="geometry" />
        </mxCell>
        <mxCell id="g2MOZfHRKM3PN08ormvh-94" value="27: saveState ()" style="html=1;verticalAlign=bottom;endArrow=block;curved=0;rounded=0;" parent="1" edge="1">
          <mxGeometry x="0.4763" width="80" relative="1" as="geometry">
            <mxPoint x="467.5" y="760.41" as="sourcePoint" />
            <mxPoint x="463.5" y="760" as="targetPoint" />
            <mxPoint as="offset" />
            <Array as="points">
              <mxPoint x="840" y="760" />
            </Array>
          </mxGeometry>
        </mxCell>
        <mxCell id="g2MOZfHRKM3PN08ormvh-95" value="" style="html=1;points=[[0,0,0,0,5],[0,1,0,0,-5],[1,0,0,0,5],[1,1,0,0,-5]];perimeter=orthogonalPerimeter;outlineConnect=0;targetShapes=umlLifeline;portConstraint=eastwest;newEdgeStyle={&quot;curved&quot;:0,&quot;rounded&quot;:0};" parent="1" vertex="1">
          <mxGeometry x="970" y="790" width="10" height="170" as="geometry" />
        </mxCell>
        <mxCell id="g2MOZfHRKM3PN08ormvh-96" value="29: getModels ()" style="html=1;verticalAlign=bottom;endArrow=block;curved=0;rounded=0;" parent="1" source="g2MOZfHRKM3PN08ormvh-97" edge="1">
          <mxGeometry x="0.4763" width="80" relative="1" as="geometry">
            <mxPoint x="840" y="817" as="sourcePoint" />
            <mxPoint x="460" y="817" as="targetPoint" />
            <mxPoint as="offset" />
            <Array as="points">
              <mxPoint x="970" y="817.41" />
            </Array>
          </mxGeometry>
        </mxCell>
        <mxCell id="g2MOZfHRKM3PN08ormvh-97" value="" style="html=1;points=[[0,0,0,0,5],[0,1,0,0,-5],[1,0,0,0,5],[1,1,0,0,-5]];perimeter=orthogonalPerimeter;outlineConnect=0;targetShapes=umlLifeline;portConstraint=eastwest;newEdgeStyle={&quot;curved&quot;:0,&quot;rounded&quot;:0};" parent="1" vertex="1">
          <mxGeometry x="453.5" y="817.24" width="10" height="20" as="geometry" />
        </mxCell>
        <mxCell id="g2MOZfHRKM3PN08ormvh-98" value="&amp;nbsp;" style="html=1;verticalAlign=bottom;endArrow=open;dashed=1;endSize=8;curved=0;rounded=0;" parent="1" source="g2MOZfHRKM3PN08ormvh-97" edge="1">
          <mxGeometry relative="1" as="geometry">
            <mxPoint x="593.5" y="837.24" as="sourcePoint" />
            <mxPoint x="970" y="837.41" as="targetPoint" />
          </mxGeometry>
        </mxCell>
        <mxCell id="g2MOZfHRKM3PN08ormvh-99" value="30: LoadModels()" style="edgeLabel;html=1;align=center;verticalAlign=middle;resizable=0;points=[];" parent="g2MOZfHRKM3PN08ormvh-98" vertex="1" connectable="0">
          <mxGeometry x="-0.0223" y="1" relative="1" as="geometry">
            <mxPoint x="1" y="-9" as="offset" />
          </mxGeometry>
        </mxCell>
        <mxCell id="g2MOZfHRKM3PN08ormvh-100" value="28:init ()" style="html=1;verticalAlign=bottom;endArrow=block;curved=0;rounded=0;" parent="1" target="g2MOZfHRKM3PN08ormvh-95" edge="1">
          <mxGeometry x="-0.3846" width="80" relative="1" as="geometry">
            <mxPoint x="60" y="790" as="sourcePoint" />
            <mxPoint x="960" y="800" as="targetPoint" />
            <mxPoint as="offset" />
          </mxGeometry>
        </mxCell>
        <mxCell id="g2MOZfHRKM3PN08ormvh-101" value="31:&amp;nbsp;&lt;span style=&quot;font-size: 12px; text-align: left; text-wrap: wrap; background-color: rgb(251, 251, 251);&quot;&gt;pipeline&lt;/span&gt;&lt;span style=&quot;color: rgba(0, 0, 0, 0); font-family: monospace; font-size: 0px; text-align: start; background-color: rgb(251, 251, 251);&quot;&gt;%3CmxGraphModel%3E%3Croot%3E%3CmxCell%20id%3D%220%22%2F%3E%3CmxCell%20id%3D%221%22%20parent%3D%220%22%2F%3E%3CmxCell%20id%3D%222%22%20value%3D%2228%3Ainit%20()%22%20style%3D%22html%3D1%3BverticalAlign%3Dbottom%3BendArrow%3Dblock%3Bcurved%3D0%3Brounded%3D0%3B%22%20edge%3D%221%22%20parent%3D%221%22%3E%3CmxGeometry%20x%3D%22-0.3846%22%20width%3D%2280%22%20relative%3D%221%22%20as%3D%22geometry%22%3E%3CmxPoint%20x%3D%2260%22%20y%3D%22790%22%20as%3D%22sourcePoint%22%2F%3E%3CmxPoint%20x%3D%22970%22%20y%3D%22790%22%20as%3D%22targetPoint%22%2F%3E%3CmxPoint%20as%3D%22offset%22%2F%3E%3C%2FmxGeometry%3E%3C%2FmxCell%3E%3C%2Froot%3E%3C%2FmxGraphModel%3E&lt;/span&gt;&lt;span style=&quot;color: rgba(0, 0, 0, 0); font-family: monospace; font-size: 0px; text-align: start; background-color: rgb(251, 251, 251);&quot;&gt;%3CmxGraphModel%3E%3Croot%3E%3CmxCell%20id%3D%220%22%2F%3E%3CmxCell%20id%3D%221%22%20parent%3D%220%22%2F%3E%3CmxCell%20id%3D%222%22%20value%3D%2228%3Ainit%20()%22%20style%3D%22html%3D1%3BverticalAlign%3Dbottom%3BendArrow%3Dblock%3Bcurved%3D0%3Brounded%3D0%3B%22%20edge%3D%221%22%20parent%3D%221%22%3E%3CmxGeometry%20x%3D%22-0.3846%22%20width%3D%2280%22%20relative%3D%221%22%20as%3D%22geometry%22%3E%3CmxPoint%20x%3D%2260%22%20y%3D%22790%22%20as%3D%22sourcePoint%22%2F%3E%3CmxPoint%20x%3D%22970%22%20y%3D%22790%22%20as%3D%22targetPoint%22%2F%3E%3CmxPoint%20as%3D%22offset%22%2F%3E%3C%2FmxGeometry%3E%3C%2FmxCell%3E%3C%2Froot%3E%3C%2FmxGraphModel%3E&lt;/span&gt;&amp;nbsp;()" style="html=1;verticalAlign=bottom;endArrow=block;curved=0;rounded=0;" parent="1" edge="1">
          <mxGeometry x="-0.3846" width="80" relative="1" as="geometry">
            <mxPoint x="60" y="860" as="sourcePoint" />
            <mxPoint x="970" y="860" as="targetPoint" />
            <mxPoint as="offset" />
          </mxGeometry>
        </mxCell>
        <mxCell id="g2MOZfHRKM3PN08ormvh-102" value="32:&amp;nbsp;&lt;span style=&quot;font-size: 12px; text-align: left; text-wrap: wrap; background-color: rgb(251, 251, 251);&quot;&gt;Documentation&lt;/span&gt;&amp;nbsp;()" style="html=1;verticalAlign=bottom;endArrow=block;curved=0;rounded=0;" parent="1" edge="1">
          <mxGeometry x="-0.3846" width="80" relative="1" as="geometry">
            <mxPoint x="60" y="880" as="sourcePoint" />
            <mxPoint x="970" y="880" as="targetPoint" />
            <mxPoint as="offset" />
          </mxGeometry>
        </mxCell>
        <mxCell id="g2MOZfHRKM3PN08ormvh-103" value="33:&amp;nbsp;&lt;span style=&quot;font-size: 12px; text-align: left; text-wrap: wrap; background-color: rgb(251, 251, 251);&quot;&gt;buildModel&lt;/span&gt;&amp;nbsp;()" style="html=1;verticalAlign=bottom;endArrow=block;curved=0;rounded=0;" parent="1" edge="1">
          <mxGeometry x="-0.3846" width="80" relative="1" as="geometry">
            <mxPoint x="60" y="900" as="sourcePoint" />
            <mxPoint x="970" y="900" as="targetPoint" />
            <mxPoint as="offset" />
          </mxGeometry>
        </mxCell>
        <mxCell id="g2MOZfHRKM3PN08ormvh-104" value="" style="html=1;points=[[0,0,0,0,5],[0,1,0,0,-5],[1,0,0,0,5],[1,1,0,0,-5]];perimeter=orthogonalPerimeter;outlineConnect=0;targetShapes=umlLifeline;portConstraint=eastwest;newEdgeStyle={&quot;curved&quot;:0,&quot;rounded&quot;:0};" parent="1" vertex="1">
          <mxGeometry x="184" y="940" width="10" height="20" as="geometry" />
        </mxCell>
        <mxCell id="g2MOZfHRKM3PN08ormvh-105" value="34: Result ()" style="html=1;verticalAlign=bottom;endArrow=block;curved=0;rounded=0;entryX=1;entryY=1;entryDx=0;entryDy=-5;entryPerimeter=0;" parent="1" source="g2MOZfHRKM3PN08ormvh-95" target="g2MOZfHRKM3PN08ormvh-104" edge="1">
          <mxGeometry x="0.04" width="80" relative="1" as="geometry">
            <mxPoint x="960" y="960" as="sourcePoint" />
            <mxPoint x="710" y="960" as="targetPoint" />
            <mxPoint as="offset" />
            <Array as="points">
              <mxPoint x="730" y="960" />
            </Array>
          </mxGeometry>
        </mxCell>
        <mxCell id="g2MOZfHRKM3PN08ormvh-108" value="" style="endArrow=none;dashed=1;html=1;rounded=0;" parent="1" source="g2MOZfHRKM3PN08ormvh-104" target="BKhIqPO599WWMoXGcLbZ-18" edge="1">
          <mxGeometry width="50" height="50" relative="1" as="geometry">
            <mxPoint x="179" y="930" as="sourcePoint" />
            <mxPoint x="190" y="160" as="targetPoint" />
          </mxGeometry>
        </mxCell>
        <mxCell id="g2MOZfHRKM3PN08ormvh-109" value="" style="endArrow=none;dashed=1;html=1;rounded=0;" parent="1" edge="1">
          <mxGeometry width="50" height="50" relative="1" as="geometry">
            <mxPoint x="325" y="630" as="sourcePoint" />
            <mxPoint x="325" y="430" as="targetPoint" />
          </mxGeometry>
        </mxCell>
        <mxCell id="g2MOZfHRKM3PN08ormvh-110" value="" style="endArrow=none;dashed=1;html=1;rounded=0;" parent="1" source="g2MOZfHRKM3PN08ormvh-52" edge="1">
          <mxGeometry width="50" height="50" relative="1" as="geometry">
            <mxPoint x="325" y="420" as="sourcePoint" />
            <mxPoint x="324.71" y="340" as="targetPoint" />
          </mxGeometry>
        </mxCell>
        <mxCell id="g2MOZfHRKM3PN08ormvh-112" value="" style="endArrow=none;dashed=1;html=1;rounded=0;" parent="1" source="g2MOZfHRKM3PN08ormvh-47" edge="1">
          <mxGeometry width="50" height="50" relative="1" as="geometry">
            <mxPoint x="325.05" y="290" as="sourcePoint" />
            <mxPoint x="324.76" y="220" as="targetPoint" />
          </mxGeometry>
        </mxCell>
        <mxCell id="g2MOZfHRKM3PN08ormvh-113" value="" style="endArrow=none;dashed=1;html=1;rounded=0;" parent="1" edge="1">
          <mxGeometry width="50" height="50" relative="1" as="geometry">
            <mxPoint x="325" y="200" as="sourcePoint" />
            <mxPoint x="324.76" y="164" as="targetPoint" />
          </mxGeometry>
        </mxCell>
        <mxCell id="g2MOZfHRKM3PN08ormvh-114" value="" style="endArrow=none;dashed=1;html=1;rounded=0;entryX=0.5;entryY=1;entryDx=0;entryDy=0;" parent="1" target="g2MOZfHRKM3PN08ormvh-5" edge="1">
          <mxGeometry width="50" height="50" relative="1" as="geometry">
            <mxPoint x="325" y="144" as="sourcePoint" />
            <mxPoint x="324.76" y="108" as="targetPoint" />
          </mxGeometry>
        </mxCell>
        <mxCell id="g2MOZfHRKM3PN08ormvh-115" value="" style="endArrow=none;dashed=1;html=1;rounded=0;entryX=0.5;entryY=1;entryDx=0;entryDy=0;" parent="1" source="g2MOZfHRKM3PN08ormvh-49" edge="1">
          <mxGeometry width="50" height="50" relative="1" as="geometry">
            <mxPoint x="458" y="144" as="sourcePoint" />
            <mxPoint x="458" y="65" as="targetPoint" />
          </mxGeometry>
        </mxCell>
        <mxCell id="g2MOZfHRKM3PN08ormvh-116" value="" style="endArrow=none;dashed=1;html=1;rounded=0;entryX=0.5;entryY=1;entryDx=0;entryDy=0;" parent="1" source="g2MOZfHRKM3PN08ormvh-90" edge="1">
          <mxGeometry width="50" height="50" relative="1" as="geometry">
            <mxPoint x="460" y="570" as="sourcePoint" />
            <mxPoint x="458.26" y="470" as="targetPoint" />
          </mxGeometry>
        </mxCell>
        <mxCell id="g2MOZfHRKM3PN08ormvh-117" value="" style="endArrow=none;dashed=1;html=1;rounded=0;entryX=0.5;entryY=1;entryDx=0;entryDy=0;" parent="1" edge="1">
          <mxGeometry width="50" height="50" relative="1" as="geometry">
            <mxPoint x="459" y="670" as="sourcePoint" />
            <mxPoint x="458.52" y="590" as="targetPoint" />
          </mxGeometry>
        </mxCell>
        <mxCell id="g2MOZfHRKM3PN08ormvh-118" value="" style="endArrow=none;dashed=1;html=1;rounded=0;entryX=0.5;entryY=1;entryDx=0;entryDy=0;" parent="1" edge="1">
          <mxGeometry width="50" height="50" relative="1" as="geometry">
            <mxPoint x="458" y="760" as="sourcePoint" />
            <mxPoint x="458.26" y="689.83" as="targetPoint" />
          </mxGeometry>
        </mxCell>
        <mxCell id="g2MOZfHRKM3PN08ormvh-119" value="" style="endArrow=none;dashed=1;html=1;rounded=0;entryX=0.5;entryY=1;entryDx=0;entryDy=0;" parent="1" source="g2MOZfHRKM3PN08ormvh-97" edge="1">
          <mxGeometry width="50" height="50" relative="1" as="geometry">
            <mxPoint x="460" y="820" as="sourcePoint" />
            <mxPoint x="458.26" y="780" as="targetPoint" />
          </mxGeometry>
        </mxCell>
        <mxCell id="g2MOZfHRKM3PN08ormvh-120" value="" style="endArrow=none;dashed=1;html=1;rounded=0;entryX=0.5;entryY=1;entryDx=0;entryDy=0;" parent="1" source="g2MOZfHRKM3PN08ormvh-9" edge="1">
          <mxGeometry width="50" height="50" relative="1" as="geometry">
            <mxPoint x="584.29" y="144" as="sourcePoint" />
            <mxPoint x="584.29" y="65" as="targetPoint" />
          </mxGeometry>
        </mxCell>
        <mxCell id="g2MOZfHRKM3PN08ormvh-121" value="" style="endArrow=none;dashed=1;html=1;rounded=0;entryX=0.5;entryY=1;entryDx=0;entryDy=0;" parent="1" source="g2MOZfHRKM3PN08ormvh-50" edge="1">
          <mxGeometry width="50" height="50" relative="1" as="geometry">
            <mxPoint x="714.71" y="144" as="sourcePoint" />
            <mxPoint x="714.71" y="65" as="targetPoint" />
          </mxGeometry>
        </mxCell>
        <mxCell id="g2MOZfHRKM3PN08ormvh-123" value="" style="endArrow=none;dashed=1;html=1;rounded=0;entryX=0.5;entryY=1;entryDx=0;entryDy=0;" parent="1" source="g2MOZfHRKM3PN08ormvh-95" edge="1">
          <mxGeometry width="50" height="50" relative="1" as="geometry">
            <mxPoint x="974" y="605" as="sourcePoint" />
            <mxPoint x="974" y="60" as="targetPoint" />
          </mxGeometry>
        </mxCell>
        <mxCell id="g2MOZfHRKM3PN08ormvh-124" value="" style="endArrow=none;dashed=1;html=1;rounded=0;entryX=0.5;entryY=1;entryDx=0;entryDy=0;" parent="1" edge="1">
          <mxGeometry width="50" height="50" relative="1" as="geometry">
            <mxPoint x="845" y="610" as="sourcePoint" />
            <mxPoint x="844.6" y="70" as="targetPoint" />
          </mxGeometry>
        </mxCell>
      </root>
    </mxGraphModel>
  </diagram>
</mxfile>
